<?xml version="1.0" encoding="UTF-8" standalone="no"?>
<svg
   height="48px"
   viewBox="0 -960 960 960"
   width="48px"
   fill="#e3e3e3"
   version="1.1"
   id="svg1"
   sodipodi:docname="go_hit_hurt.svg"
   inkscape:version="1.4.3 (0d15f75042, 2025-12-25)"
   xmlns:inkscape="http://www.inkscape.org/namespaces/inkscape"
   xmlns:sodipodi="http://sodipodi.sourceforge.net/DTD/sodipodi-0.dtd"
   xmlns="http://www.w3.org/2000/svg"
   xmlns:svg="http://www.w3.org/2000/svg">
  <defs
     id="defs1">
    <inkscape:path-effect
       effect="offset"
       id="path-effect2"
       is_visible="true"
       lpeversion="1.3"
       linejoin_type="miter"
       unit="mm"
       offset="0.2"
       miter_limit="4"
       attempt_force_join="false"
       update_on_knot_move="true" />
    <inkscape:path-effect
       effect="fillet_chamfer"
       id="path-effect1"
       is_visible="true"
       lpeversion="1"
       nodesatellites_param="F,1,0,1,0,0.11,0,1 @ F,1,0,1,0,0.11,0,1 @ F,1,0,1,0,0.11,0,1 @ F,1,0,1,0,0.11,0,1 @ F,1,0,1,0,0.11,0,1 @ F,1,0,1,0,0.11,0,1 | F,1,0,1,0,0.11,0,1 @ F,1,0,1,0,0.11,0,1 @ F,1,0,1,0,0.11,0,1 @ F,1,0,1,0,0.11,0,1 @ F,1,0,1,0,0.11,0,1 @ F,1,0,1,0,0.11,0,1 @ F,1,0,1,0,0.11,0,1 @ F,1,0,1,0,0.11,0,1 | "
       radius="10"
       unit="px"
       method="auto"
       mode="F"
       chamfer_steps="1"
       flexible="true"
       use_knot_distance="true"
       apply_no_radius="true"
       apply_with_radius="true"
       only_selected="false"
       hide_knots="false" />
  </defs>
  <sodipodi:namedview
     id="namedview1"
     pagecolor="#505050"
     bordercolor="#ffffff"
     borderopacity="1"
     inkscape:showpageshadow="0"
     inkscape:pageopacity="0"
     inkscape:pagecheckerboard="1"
     inkscape:deskcolor="#505050"
     inkscape:zoom="9.7565617"
     inkscape:cx="19.064093"
     inkscape:cy="28.647387"
     inkscape:window-width="1600"
     inkscape:window-height="996"
     inkscape:window-x="0"
     inkscape:window-y="0"
     inkscape:window-maximized="1"
     inkscape:current-layer="svg1" />
  <path
     d="m 891.99505,-382.05697 q 8.72366,-38.16607 -3.27139,-73.06072 -11.99504,-34.89468 -26.171,-68.6989 -28.35194,26.171 -51.25153,52.88725 -22.89966,26.71623 -31.62329,65.97273 -7.63323,38.16605 3.81657,71.97026 11.4498,33.80421 25.62575,67.60844 28.35195,-25.08057 51.2516,-51.79679 22.89959,-26.71622 31.62329,-64.88227 z M 166.84016,-625.22923 q 29.44237,29.44239 68.69889,34.34944 39.25651,4.90706 74.15116,-13.63073 l -40.34696,-39.25651 q -30.53283,-29.44237 -67.60843,-33.25899 -37.07559,-3.81659 -68.69889,17.99259 z m 94.86989,-242.0818 -142.85007,141.75962 q 47.98018,-22.89964 101.41265,-14.17596 53.43245,8.72367 94.86988,50.16109 l 40.34696,40.34696 q 19.62826,-34.89466 14.7212,-75.24162 -4.90707,-40.34699 -34.34946,-69.78935 z M 870.18589,-44.014839 355.48947,-557.62079 q -54.52292,38.16604 -120.49566,33.25898 -65.97274,-4.90707 -115.04336,-53.9777 L 0,-699.3804 261.71005,-960 381.66048,-840.04955 q 49.07063,49.07062 53.43246,115.58861 4.36185,66.51797 -33.8042,121.04088 l 330.40888,329.31846 q -14.17594,-34.89467 -19.08301,-70.87979 -4.90706,-35.98514 2.72615,-73.06072 6.54273,-32.71376 22.35442,-61.06568 15.81161,-28.35193 37.07559,-52.88724 21.26393,-24.53532 48.52539,-44.70879 27.26147,-20.17347 56.70386,-35.4399 42.52784,52.34201 65.42749,114.49813 22.89962,62.15614 9.81413,127.58365 -11.99504,58.88476 -49.61587,103.59357 -37.62085,44.70879 -89.96283,76.33209 L 915.98513,-89.814107 Z M 263.89096,-697.19949 Z m 371.84636,234.44858 -46.88974,-46.88972 261.71005,-260.61958 v -81.78438 h -81.78442 l -262.80046,260.61957 -44.70879,-45.79924 280.24779,-280.24784 h 174.47338 v 174.47336 z M 118.85998,-49.467137 47.980178,-120.34695 q -9.814126,-9.81413 -9.814126,-22.89962 0,-13.08552 9.814126,-22.89963 L 183.19704,-301.36304 87.236678,-397.3234 134.1264,-444.21311 q 18.5378,-18.5378 45.25402,-18.5378 26.71624,0 46.34449,18.5378 l 21.80917,20.71871 75.24164,-75.24164 44.70879,45.79925 -75.24163,75.24163 81.78439,81.78439 75.24164,-75.24164 47.98018,46.88973 -75.24163,75.24164 20.71869,21.80916 q 18.53781,19.62826 18.53781,46.34448 0,26.71625 -18.53781,45.25403 L 395.83643,-88.723652 299.87609,-184.684 164.65923,-49.467137 q -9.81412,9.814118 -22.89962,9.814118 -13.0855,0 -22.89963,-9.814118 z"
     id="path1"
     style="stroke-width:1.09046;fill:#ff5555" />
</svg>
