<?xml version="1.0" encoding="UTF-8" standalone="no"?>
<svg
   height="48px"
   viewBox="0 -960 960 960"
   width="48px"
   fill="#e3e3e3"
   version="1.1"
   id="svg1"
   sodipodi:docname="go_hurtbox_2d.svg"
   inkscape:version="1.4.3 (0d15f75042, 2025-12-25)"
   xmlns:inkscape="http://www.inkscape.org/namespaces/inkscape"
   xmlns:sodipodi="http://sodipodi.sourceforge.net/DTD/sodipodi-0.dtd"
   xmlns="http://www.w3.org/2000/svg"
   xmlns:svg="http://www.w3.org/2000/svg">
  <defs
     id="defs1">
    <inkscape:path-effect
       effect="offset"
       id="path-effect2"
       is_visible="true"
       lpeversion="1.3"
       linejoin_type="miter"
       unit="mm"
       offset="0.2"
       miter_limit="4"
       attempt_force_join="false"
       update_on_knot_move="true" />
    <inkscape:path-effect
       effect="fillet_chamfer"
       id="path-effect1"
       is_visible="true"
       lpeversion="1"
       nodesatellites_param="F,1,0,1,0,0.11,0,1 @ F,1,0,1,0,0.11,0,1 @ F,1,0,1,0,0.11,0,1 @ F,1,0,1,0,0.11,0,1 @ F,1,0,1,0,0.11,0,1 @ F,1,0,1,0,0.11,0,1 | F,1,0,1,0,0.11,0,1 @ F,1,0,1,0,0.11,0,1 @ F,1,0,1,0,0.11,0,1 @ F,1,0,1,0,0.11,0,1 @ F,1,0,1,0,0.11,0,1 @ F,1,0,1,0,0.11,0,1 @ F,1,0,1,0,0.11,0,1 @ F,1,0,1,0,0.11,0,1 | "
       radius="10"
       unit="px"
       method="auto"
       mode="F"
       chamfer_steps="1"
       flexible="true"
       use_knot_distance="true"
       apply_no_radius="true"
       apply_with_radius="true"
       only_selected="false"
       hide_knots="false" />
  </defs>
  <sodipodi:namedview
     id="namedview1"
     pagecolor="#505050"
     bordercolor="#ffffff"
     borderopacity="1"
     inkscape:showpageshadow="0"
     inkscape:pageopacity="0"
     inkscape:pagecheckerboard="1"
     inkscape:deskcolor="#505050"
     inkscape:zoom="8.9721843"
     inkscape:cx="12.09293"
     inkscape:cy="2.6192061"
     inkscape:window-width="1600"
     inkscape:window-height="996"
     inkscape:window-x="0"
     inkscape:window-y="0"
     inkscape:window-maximized="1"
     inkscape:current-layer="svg1" />
  <path
     d="M 144.97027,0 Q 112.01523,0 88.5346,-23.4692 65.0654,-46.949819 65.0654,-79.904876 V -285.37456 q 0,-32.96647 23.4692,-56.43567 23.48063,-23.46921 56.43567,-23.46921 h 662.06895 q 32.96648,0 56.43573,23.46921 23.46922,23.4692 23.46922,56.43567 v 205.469684 q 0,32.955057 -23.46922,56.435676 Q 840.0057,0 807.03922,0 Z M 133.55529,-68.489886 H 818.45421 V -296.78954 H 133.55529 Z M 215.74317,-432.62783 0,-557.05113 276.24257,-603.54436 202.04519,-876.67065 431.48633,-712.29491 569.60761,-960 l 46.80146,279.66706 269.39354,-75.3389 -162.09274,231.72415 158.66832,91.31986 H 741.97387 l -111.86684,-73.05588 85.61236,-127.84781 -154.10226,33.10345 -27.39596,-150.67778 -82.18787,140.4043 -132.4138,-97.02737 42.23544,158.66827 -160.95125,28.53746 147.25327,87.89536 z m 255.6956,0 z m 4.566,249.98812 z"
     id="path1"
     style="stroke-width:1.1415;fill:#6393ff;fill-opacity:1.0" />
</svg>
